<?xml version="1.0" encoding="UTF-8"?>
<svg xmlns="http://www.w3.org/2000/svg" xmlns:xlink="http://www.w3.org/1999/xlink" width="24px" height="24px" viewBox="0 0 24 24" version="1.1">
<g id="surface1">
<path style=" stroke:none;fill-rule:nonzero;fill:rgb(0%,0%,0%);fill-opacity:1;" d="M 16.835938 4.5 C 17.941406 4.5 18.996094 4.941406 19.769531 5.730469 C 21.410156 7.394531 21.410156 10.066406 19.769531 11.730469 L 12 19.597656 L 4.230469 11.730469 C 2.589844 10.066406 2.589844 7.394531 4.230469 5.730469 C 5.003906 4.941406 6.058594 4.5 7.164062 4.5 C 8.265625 4.5 9.320312 4.941406 10.09375 5.730469 L 12 7.679688 L 13.898438 5.746094 C 14.667969 4.949219 15.730469 4.5 16.835938 4.5 M 16.835938 3 C 15.332031 3 13.886719 3.605469 12.832031 4.679688 L 12 5.519531 L 11.167969 4.679688 C 10.113281 3.605469 8.667969 3 7.164062 3 C 5.65625 3 4.214844 3.605469 3.15625 4.679688 C 0.945312 6.933594 0.945312 10.542969 3.15625 12.796875 L 12 21.75 L 20.84375 12.796875 C 23.054688 10.542969 23.054688 6.933594 20.84375 4.679688 C 19.785156 3.605469 18.34375 3 16.835938 3 Z M 16.835938 3 "/>
</g>
</svg>
