<svg id="Bell" xmlns="http://www.w3.org/2000/svg" width="24" height="24" viewBox="0 0 24 24">
  <path id="Path_2311" data-name="Path 2311" d="M0,0H24V24H0Z" fill="none"/>
  <path id="Path_2036" data-name="Path 2036" d="M270.358,312.748c.137.817.291,1.7.525,2.61h.006a2.808,2.808,0,0,0,.874,1.237l.04.042a2.891,2.891,0,0,1,1.159,2.217.755.755,0,0,1-.782.728h-4.967a2.3,2.3,0,0,1-.737,1.415,2.744,2.744,0,0,1-3.643,0,2.334,2.334,0,0,1-.742-1.415h-4.962a.755.755,0,0,1-.782-.728v-.016a2.732,2.732,0,0,1,1.382-2.342,2.221,2.221,0,0,0,.925-1.137c.24-.912.388-1.787.531-2.6l.046-.283c.08-.472.16-.922.251-1.341a5.417,5.417,0,0,1,2.467-3.794,5.2,5.2,0,0,1,1.171-.508l-.063-.057a1.956,1.956,0,0,1,0-2.935,2.407,2.407,0,0,1,3.2,0,1.957,1.957,0,0,1,0,2.935l-.006.005a5.34,5.34,0,0,1,1.348.556c2.084,1.231,2.421,3.364,2.763,5.418Zm-4.773-8.3h0a1.393,1.393,0,0,0-1.861,0,1.133,1.133,0,0,0,0,1.708,1.394,1.394,0,0,0,1.861,0,1.133,1.133,0,0,0,0-1.708Zm3.226,8.521h0c-.268-1.582-.445-3.474-2.061-4.423a4,4,0,0,0-3.957,0,4.038,4.038,0,0,0-1.776,2.867c-.091.409-.165.833-.24,1.273l-.051.288c-.143.849-.3,1.755-.542,2.715a3.388,3.388,0,0,1-1.439,1.9,3.273,3.273,0,0,0-.588.545H271.14a4.106,4.106,0,0,0-.474-.519l-.04-.037a3.929,3.929,0,0,1-1.268-1.892h0c-.251-.964-.405-1.871-.548-2.72Zm-3.192,6.613h-1.93a.963.963,0,0,0,.257.393,1.056,1.056,0,0,0,1.416,0,.962.962,0,0,0,.257-.393Z" transform="translate(-252.653 -300.524)" fill="rgba(15,37,63,0.6)"/>
</svg>
