<svg id="Explore" xmlns="http://www.w3.org/2000/svg" xmlns:xlink="http://www.w3.org/1999/xlink" width="24" height="24" viewBox="0 0 24 24">
  <defs>
    <clipPath id="clip-path">
      <rect id="Rectangle_1643" data-name="Rectangle 1643" width="16" height="15.996" fill="#6c7989"/>
    </clipPath>
  </defs>
  <path id="Path_2311" data-name="Path 2311" d="M0,0H24V24H0Z" fill="none"/>
  <g id="Group_2622" data-name="Group 2622" transform="translate(4 4.002)">
    <g id="Group_2622-2" data-name="Group 2622" transform="translate(0 0)" clip-path="url(#clip-path)">
      <path id="Path_2467" data-name="Path 2467" d="M8,6.7A1.3,1.3,0,0,1,9.3,7.993a1.279,1.279,0,0,1-.38.916v0A1.286,1.286,0,0,1,8,9.293a1.3,1.3,0,0,1-1.3-1.3,1.288,1.288,0,0,1,.384-.911v0A1.3,1.3,0,0,1,8,6.7M4.41,3.628l5.706,1.859a.626.626,0,0,1,.393.393l1.859,5.71a.616.616,0,0,1-.393.773.685.685,0,0,1-.38,0L5.889,10.5a.625.625,0,0,1-.393-.393L3.641,4.405a.611.611,0,0,1,.389-.777.647.647,0,0,1,.38,0M9.432,6.564,5.174,5.174l1.39,4.258,4.258,1.39ZM8,0A8,8,0,1,1,0,8.011V7.975A8.015,8.015,0,0,1,8,0m.612,1.256v.992a.617.617,0,0,1-1.233,0V1.256A6.792,6.792,0,0,0,1.26,7.381h.992a.617.617,0,1,1,0,1.233H1.26A6.82,6.82,0,0,0,7.381,14.74v-1a.617.617,0,0,1,1.233,0v1A6.788,6.788,0,0,0,14.74,8.614h-.987a.617.617,0,1,1,0-1.233h.987A6.792,6.792,0,0,0,8.614,1.256M8.4,7.6A.549.549,0,0,0,8,7.435a.6.6,0,0,0-.4.165.586.586,0,0,0-.156.393.559.559,0,0,0,.952.4.575.575,0,0,0,.165-.4A.554.554,0,0,0,8.4,7.6" transform="translate(0 0)" fill="#6c7989"/>
    </g>
  </g>
</svg>
