<svg xmlns="http://www.w3.org/2000/svg" width="26" height="26" viewBox="0 0 26 26">
  <g id="Icon_Search_Rounded" data-name="Icon / Search / Rounded" transform="translate(0 0)">
    <rect id="Box" width="26" height="26" transform="translate(0 0)" fill="none"/>
    <path id="Path_2332" data-name="Path 2332" d="M211.163,608.436a.432.432,0,1,1-.8-.338,4.983,4.983,0,0,1,.464-.859h0a5.507,5.507,0,0,1,.627-.77h0a5.107,5.107,0,0,1,.765-.622,4.85,4.85,0,0,1,.865-.469.432.432,0,1,1,.337.8,4.173,4.173,0,0,0-.717.4,3.949,3.949,0,0,0-.633.517h0a4.4,4.4,0,0,0-.522.633h0a4.308,4.308,0,0,0-.39.717Zm10,6.712,3.132,3.132a.723.723,0,0,1-1.018,1.028l-3.142-3.137a7.679,7.679,0,0,1-2.025,1.223,7.844,7.844,0,0,1-6.048,0h-.005a7.914,7.914,0,0,1-2.568-1.714v.006a8.059,8.059,0,0,1-1.714-2.573l-.016-.037a7.911,7.911,0,0,1,.016-6.011,8.032,8.032,0,0,1,1.714-2.568,7.909,7.909,0,0,1,8.615-1.714h.005a7.861,7.861,0,0,1,2.562,1.714l.037.037a8.045,8.045,0,0,1,1.682,2.531l.011.042a7.865,7.865,0,0,1-.011,6.005,8.155,8.155,0,0,1-1.228,2.036Zm-3.612-11.025a6.491,6.491,0,0,0-7.033,1.4,6.4,6.4,0,0,0-1.4,2.1,6.458,6.458,0,0,0-.016,4.9l.016.032a6.48,6.48,0,0,0,1.4,2.1h0a6.311,6.311,0,0,0,2.1,1.4v.005a6.36,6.36,0,0,0,2.468.49,6.286,6.286,0,0,0,2.468-.5,6.427,6.427,0,0,0,2.088-1.387l.011-.011h0a6.5,6.5,0,0,0,1.418-7l-.016-.032a6.467,6.467,0,0,0-1.371-2.067l-.032-.037a6.5,6.5,0,0,0-2.1-1.4Zm1.777,5.968a.438.438,0,1,1,.875,0,5.11,5.11,0,0,1-.4,1.961l-.005.016a5.106,5.106,0,0,1-1.1,1.64,5,5,0,0,1-1.661,1.112,5.117,5.117,0,0,1-1.956.39.438.438,0,0,1,0-.875,4.189,4.189,0,0,0,3.005-1.244,4.27,4.27,0,0,0,.912-1.35l.005-.021a4.234,4.234,0,0,0,.322-1.629Z" transform="translate(-202.839 -597.85)" fill="#2e4157"/>
  </g>
</svg>
